<?xml version="1.0" standalone="no"?>
<!DOCTYPE svg PUBLIC "-//W3C//DTD SVG 20010904//EN"
 "http://www.w3.org/TR/2001/REC-SVG-20010904/DTD/svg10.dtd">
<svg version="1.0" xmlns="http://www.w3.org/2000/svg"
 width="500.000000pt" height="500.000000pt" viewBox="0 0 500.000000 500.000000"
 preserveAspectRatio="xMidYMid meet">

<g transform="translate(0.000000,500.000000) scale(0.100000,-0.100000)"
fill="#000000" stroke="none">
<path d="M2543 3507 c-220 -254 -400 -463 -398 -465 2 -2 99 10 215 27 117 17
216 31 221 31 4 0 -24 -66 -63 -147 -188 -396 -418 -909 -418 -934 0 -5 4 -7
10 -4 14 8 273 398 480 720 95 149 212 331 260 405 48 74 92 145 99 158 l12
23 -123 -6 c-68 -3 -149 -8 -180 -11 -32 -3 -58 -3 -58 -1 0 2 79 151 175 332
97 180 174 329 173 330 -2 2 -184 -205 -405 -458z"/>
<path d="M1550 3080 l0 -540 70 0 70 0 0 540 0 540 -70 0 -70 0 0 -540z"/>
<path d="M3310 3080 l0 -540 70 0 70 0 0 540 0 540 -70 0 -70 0 0 -540z"/>
<path d="M1380 3080 l0 -430 70 0 70 0 0 430 0 430 -70 0 -70 0 0 -430z"/>
<path d="M3480 3080 l0 -430 70 0 70 0 0 430 0 430 -70 0 -70 0 0 -430z"/>
<path d="M1200 3080 l0 -320 70 0 70 0 0 320 0 320 -70 0 -70 0 0 -320z"/>
<path d="M3660 3080 l0 -320 70 0 70 0 0 320 0 320 -70 0 -70 0 0 -320z"/>
<path d="M1080 3080 l0 -60 45 0 45 0 0 60 0 60 -45 0 -45 0 0 -60z"/>
<path d="M1730 3080 l0 -60 139 0 139 0 52 60 52 60 -191 0 -191 0 0 -60z"/>
<path d="M2946 3085 c-20 -30 -36 -57 -36 -60 0 -3 81 -5 180 -5 l180 0 0 60
0 60 -144 0 -143 0 -37 -55z"/>
<path d="M3830 3080 l0 -60 45 0 45 0 0 60 0 60 -45 0 -45 0 0 -60z"/>
<path d="M553 1909 c-97 -19 -174 -74 -189 -136 -10 -39 13 -99 47 -124 43
-30 99 -45 227 -59 61 -7 120 -18 129 -26 17 -12 16 -13 -10 -23 -16 -6 -46
-11 -67 -11 -52 0 -178 25 -225 44 -20 9 -39 16 -41 16 -5 0 -64 -118 -64
-128 0 -5 33 -19 73 -31 89 -28 284 -39 367 -22 120 26 190 86 190 163 0 101
-64 140 -270 163 -73 8 -135 17 -139 20 -3 4 3 13 13 21 36 26 174 16 292 -21
18 -6 24 1 42 46 12 28 22 57 22 65 0 39 -269 69 -397 43z"/>
<path d="M2572 1905 c-171 -48 -252 -171 -211 -320 17 -63 101 -139 181 -163
144 -45 293 -37 408 21 77 38 123 94 139 167 26 123 -40 229 -179 285 -62 25
-263 31 -338 10z m234 -151 c45 -21 64 -50 64 -94 0 -70 -53 -110 -145 -110
-74 0 -123 23 -142 68 -24 58 3 115 67 141 39 15 118 13 156 -5z"/>
<path d="M4195 1914 c-162 -25 -259 -99 -286 -218 -36 -163 101 -296 305 -296
75 0 160 23 203 56 33 25 43 19 43 -27 0 -17 8 -19 85 -19 l85 0 0 145 0 145
-215 0 -215 0 0 -50 0 -50 105 0 c88 0 105 -2 105 -16 0 -22 -61 -44 -122 -44
-61 0 -131 28 -147 58 -16 30 -13 94 5 121 39 55 138 67 200 25 38 -26 39 -26
124 -14 111 16 113 17 93 59 -21 43 -82 87 -147 106 -54 17 -171 26 -221 19z"/>
<path d="M1014 1896 c-3 -7 -4 -42 -2 -77 l3 -64 88 -3 87 -3 0 -169 0 -170
115 0 115 0 0 170 0 170 85 0 85 0 0 80 0 80 -285 0 c-231 0 -287 -3 -291 -14z"/>
<path d="M1640 1661 l0 -251 110 0 110 0 0 76 0 76 57 -4 c54 -5 58 -7 111
-67 30 -34 67 -68 83 -76 36 -19 140 -19 185 0 30 12 34 18 28 37 -19 62 -22
66 -49 60 -21 -4 -35 4 -71 39 l-44 43 45 24 c115 58 115 204 -1 262 -48 24
-55 25 -306 28 l-258 3 0 -250z m414 103 c21 -20 20 -43 -1 -66 -13 -15 -32
-18 -105 -18 l-88 0 0 50 0 50 89 0 c68 0 93 -4 105 -16z"/>
<path d="M3150 1660 l0 -250 105 0 104 0 3 143 3 142 110 -142 110 -143 133 0
132 0 0 250 0 250 -105 0 -104 0 -3 -141 -3 -142 -110 141 -110 141 -132 1
-133 0 0 -250z"/>
<path d="M1770 1159 c-40 -17 -60 -40 -60 -70 0 -39 33 -58 119 -71 39 -6 71
-14 71 -19 0 -12 -77 -11 -124 2 -35 10 -42 9 -53 -7 -7 -10 -13 -23 -13 -30
0 -36 189 -52 247 -21 40 21 57 51 48 84 -7 30 -50 49 -133 59 -34 3 -59 10
-56 15 7 12 81 11 121 0 29 -9 32 -7 42 20 7 21 7 31 -2 36 -19 12 -180 14
-207 2z"/>
<path d="M2020 1130 l0 -40 40 0 40 0 0 -80 0 -80 55 0 55 0 0 80 0 80 40 0
40 0 0 40 0 40 -135 0 -135 0 0 -40z"/>
<path d="M2384 1156 c-45 -20 -74 -62 -74 -108 0 -69 81 -128 175 -128 94 0
175 59 175 128 0 47 -29 88 -76 108 -42 18 -159 17 -200 0z m156 -76 c25 -25
25 -42 1 -64 -38 -35 -131 -13 -131 31 0 25 39 53 75 53 22 0 43 -8 55 -20z"/>
<path d="M2690 1050 l0 -120 50 0 50 0 0 35 c0 31 3 35 27 35 18 0 40 -13 65
-37 33 -32 44 -37 80 -36 22 1 45 6 50 11 13 13 -2 42 -22 42 -9 0 -24 8 -33
18 -16 17 -15 20 13 40 20 15 30 31 30 48 0 67 -42 84 -202 84 l-108 0 0 -120z
m197 49 c23 -23 2 -39 -48 -39 -41 0 -49 3 -49 18 0 10 3 22 7 25 11 11 78 8
90 -4z"/>
<path d="M3040 1050 l0 -120 130 0 130 0 0 30 0 30 -80 0 c-64 0 -80 3 -80 15
0 12 14 15 70 15 l70 0 0 30 0 30 -70 0 c-40 0 -70 4 -70 10 0 6 32 10 75 10
l75 0 0 35 0 35 -125 0 -125 0 0 -120z"/>
</g>
</svg>
